<svg width="60" height="60" viewBox="0 0 60 60" fill="none" xmlns="http://www.w3.org/2000/svg">
<circle cx="30" cy="30" r="30" fill="#E26464"/>
<path d="M15.0719 13.0001C14.4799 13.0001 14 13.4862 14 14.067V46.3201C14 46.9093 14.4951 47.387 15.085 47.387H44.4363C45.0355 47.387 45.5213 46.8948 45.5213 46.3116V22.6722C45.5213 22.0783 45.0435 21.5968 44.4611 21.5968H36.6748C36.0893 21.5968 35.6146 21.1346 35.6146 20.5427V14.0542C35.6146 13.4721 35.1225 13.0001 34.5427 13.0001H15.0719ZM41.9189 42.8773C41.9189 43.4688 41.4548 43.9483 40.8426 43.9483H18.6787C18.0843 43.9483 17.6024 43.4708 17.6024 42.8699V17.5172C17.6024 16.9216 18.0718 16.4388 18.6906 16.4388H31.6445C32.2455 16.4388 32.7327 16.901 32.7327 17.4929V23.9814C32.7327 24.5636 33.2266 25.0355 33.7864 25.0355H40.8651C41.4471 25.0355 41.9189 25.503 41.9189 26.1065V42.8773Z" fill="white"/>
<path d="M41.0171 15.1492L38.7656 13.0001V19.4476H45.5202L41.0171 15.1492Z" fill="white"/>
<path d="M21.2051 22.6857C21.2051 22.0848 21.6695 21.5977 22.2808 21.5977H29.5173C30.1114 21.5977 30.593 22.0759 30.593 22.6857V23.9484C30.593 24.5493 30.1287 25.0364 29.5173 25.0364H22.2808C21.6867 25.0364 21.2051 24.5583 21.2051 23.9484V22.6857Z" fill="white"/>
<path d="M21.2051 29.5629C21.2051 28.962 21.6869 28.4749 22.2779 28.4749H38.1445C38.7369 28.4749 39.2173 28.953 39.2173 29.5629V30.8256C39.2173 31.4265 38.7355 31.9136 38.1445 31.9136H22.2779C21.6854 31.9136 21.2051 31.4355 21.2051 30.8256V29.5629Z" fill="white"/>
<path d="M21.2051 36.4402C21.2051 35.8393 21.6869 35.3522 22.2779 35.3522H38.1445C38.7369 35.3522 39.2173 35.8303 39.2173 36.4402V37.7028C39.2173 38.3037 38.7355 38.7909 38.1445 38.7909H22.2779C21.6854 38.7909 21.2051 38.3127 21.2051 37.7028V36.4402Z" fill="white"/>
</svg>
