<svg width="60" height="61" viewBox="0 0 60 61" fill="none" xmlns="http://www.w3.org/2000/svg">
<circle cx="30" cy="30.5" r="30" fill="#F2B406"/>
<path fill-rule="evenodd" clip-rule="evenodd" d="M36.0285 23.0872L27.098 33.7879L23.1334 29.8525C22.3364 29.0613 21.0428 29.0613 20.2458 29.8525C19.4467 30.6456 19.4467 31.9297 20.2458 32.7229L27.098 39.5246L38.9182 25.9536C39.7172 25.1625 39.7172 23.8784 38.9182 23.0872C38.1212 22.2941 36.8276 22.2941 36.0285 23.0872Z" fill="white"/>
<path fill-rule="evenodd" clip-rule="evenodd" d="M36.8389 13H22.4405C16.6833 13 12 17.6856 12 23.4427V37.8367C12 43.5939 16.6833 48.2794 22.4405 48.2794H36.8389C42.5961 48.2794 47.2794 43.5939 47.2794 37.8367V23.4427C47.2794 17.6856 42.5961 13 36.8389 13ZM43.8774 38.3851C43.8774 41.9659 40.9634 44.8775 37.3874 44.8775H21.8919C18.3159 44.8775 15.4019 41.9659 15.4019 38.3851V22.8944C15.4019 19.3136 18.3159 16.402 21.8919 16.402H37.3874C40.9634 16.402 43.8774 19.3136 43.8774 22.8944V38.3851Z" fill="white"/>
</svg>
