<svg width="84" height="84" viewBox="0 0 84 84" fill="none" xmlns="http://www.w3.org/2000/svg">
<g clip-path="url(#clip0)">
<path d="M67.459 43.6117C68.3484 43.6117 69.0703 42.8897 69.0703 42.0004C69.0703 41.111 68.3484 40.389 67.459 40.389C66.5696 40.389 65.8477 41.111 65.8477 42.0004C65.8477 42.8897 66.5696 43.6117 67.459 43.6117Z" fill="#95D1FF"/>
<path d="M41.8379 62.9479C40.9479 62.9479 40.2266 63.6692 40.2266 64.5592C40.2266 65.4492 40.9479 66.1705 41.8379 66.1705C52.5199 66.1705 62.2986 59.8939 66.7505 50.1806C67.1213 49.3718 66.7663 48.4151 65.9568 48.0444C65.148 47.6743 64.1919 48.0293 63.8206 48.8381C59.8923 57.4096 51.2635 62.9479 41.8379 62.9479Z" fill="#95D1FF"/>
<path d="M83.2454 35.4681C83.2442 35.4398 83.2435 35.4109 83.2404 35.3825C83.2404 35.3813 83.2404 35.38 83.2404 35.3781C82.5656 29.2727 78.0974 24.2845 72.51 22.1665C74.7318 20.3934 76.16 17.6649 76.16 14.6078C76.16 9.27718 71.8233 4.93982 66.492 4.93982C61.1608 4.93982 56.8241 9.27718 56.8241 14.6078C56.8241 17.6624 58.2497 20.3884 60.4685 22.1615C57.9558 23.1031 55.6836 24.6081 53.9382 26.5246C52.2507 24.6049 50.1497 23.1314 47.8145 22.1999C50.0603 20.428 51.5067 17.6844 51.5067 14.6078C51.5067 9.27718 47.17 4.93982 41.8388 4.93982C36.5076 4.93982 32.1708 9.27718 32.1708 14.6078C32.1708 17.6844 33.6172 20.428 35.8637 22.1999C33.5279 23.1314 31.4268 24.6049 29.74 26.5246C27.994 24.6081 25.7224 23.1031 23.2091 22.1615C25.4278 20.3884 26.8535 17.6624 26.8535 14.6078C26.8535 9.27718 22.5167 4.93982 17.1855 4.93982C11.8543 4.93982 7.51756 9.27718 7.51756 14.6078C7.51756 17.6787 8.95831 20.4173 11.1972 22.1898C5.83952 24.2896 1.9031 29.0379 1.01625 34.6688C0.84819 34.923 0.75 35.2277 0.75 35.555V43.4505C0.75 44.207 1.2762 44.8616 2.01514 45.024L9.02629 46.5661C9.86783 50.0324 11.2349 53.2997 13.1012 56.3039L9.85461 61.7138C9.47444 62.3483 9.57452 63.1596 10.0969 63.6827L16.9337 70.5195C17.4568 71.0425 18.2687 71.142 18.9026 70.7618L24.3987 67.4643C27.4048 69.289 30.6388 70.6158 34.0383 71.4202C34.501 73.2719 35.4652 77.1303 35.5943 77.6452C35.6006 77.6741 35.6075 77.7031 35.6157 77.732C35.8007 78.4169 36.427 78.921 37.171 78.921C37.2591 78.921 37.3466 78.9135 37.4309 78.8996H46.8339C47.5735 78.8996 48.218 78.3967 48.3967 77.6792L49.9615 71.4202C53.361 70.6158 56.595 69.289 59.6011 67.4643L65.0972 70.7618C65.7311 71.1426 66.543 71.0425 67.0661 70.5195L73.9029 63.6827C74.4253 63.1596 74.5254 62.3483 74.1452 61.7145L70.8986 56.3039C72.7655 53.2972 74.1326 50.0305 74.9735 46.5661L81.9847 45.024C82.7236 44.8616 83.2498 44.207 83.2498 43.4505V35.555C83.2498 35.5537 83.2498 35.5518 83.2498 35.55C83.2492 35.5229 83.2467 35.4958 83.2454 35.4681ZM60.0467 14.6078C60.0467 11.054 62.9383 8.16247 66.492 8.16247C70.0458 8.16247 72.9373 11.054 72.9373 14.6078C72.9373 18.1615 70.0458 21.0531 66.492 21.0531C62.9383 21.0531 60.0467 18.1615 60.0467 14.6078ZM66.492 24.2757C72.6113 24.2757 78.1616 28.4733 79.6885 33.9437H57.6279C57.2911 32.2939 56.6919 30.6971 55.8611 29.228C58.2963 26.1936 62.3574 24.2757 66.492 24.2757ZM59.5633 38.7776C59.5633 48.5513 51.6118 56.5022 41.8388 56.5022C32.0657 56.5022 24.1142 48.5513 24.1142 38.7776C24.1142 38.2357 24.14 37.6982 24.1878 37.1663H59.4897C59.5375 37.6982 59.5633 38.2357 59.5633 38.7776ZM35.3935 14.6078C35.3935 11.054 38.285 8.16247 41.8388 8.16247C45.3925 8.16247 48.2841 11.054 48.2841 14.6078C48.2841 18.1615 45.3925 21.0531 41.8388 21.0531C38.285 21.0531 35.3935 18.1615 35.3935 14.6078ZM41.8388 24.2757C47.7075 24.2757 52.8449 28.236 54.3209 33.9437H29.3567C30.832 28.2367 35.9681 24.2757 41.8388 24.2757ZM10.7402 14.6078C10.7402 11.054 13.6318 8.16247 17.1855 8.16247C20.7392 8.16247 23.6308 11.054 23.6308 14.6078C23.6308 18.1615 20.7392 21.0531 17.1855 21.0531C13.6318 21.0531 10.7402 18.1615 10.7402 14.6078ZM17.1855 24.2757C21.3202 24.2757 25.3812 26.1936 27.8165 29.228C26.9856 30.6971 26.3864 32.2939 26.0497 33.9437H4.45856C5.93079 28.3984 11.1984 24.2757 17.1855 24.2757ZM80.0272 42.1551L73.2829 43.638C72.6642 43.774 72.1827 44.2599 72.0517 44.8793C71.2549 48.6609 69.7776 52.1951 67.6603 55.3837C67.316 55.9017 67.3008 56.5708 67.6206 57.1039L70.7344 62.2935L65.6763 67.351L60.4118 64.1919C59.8844 63.8759 59.2228 63.8872 58.7061 64.2215C55.5111 66.2923 52.0153 67.7261 48.3168 68.4827C47.7094 68.6073 47.2273 69.0693 47.0768 69.6704L45.5757 75.677H38.4235C38.044 74.1569 37.412 71.6298 37.1017 70.3879C36.9853 70.1324 36.984 68.7489 35.6824 68.4827C31.9839 67.7261 28.4887 66.2923 25.2931 64.2215C24.777 63.8872 24.1148 63.8759 23.588 64.1919L18.3229 67.351L13.2655 62.2935L16.3786 57.1039C16.6983 56.5708 16.6832 55.9011 16.3389 55.3831C14.2228 52.1982 12.7449 48.6646 11.9474 44.8793C11.8172 44.2599 11.3356 43.774 10.7169 43.638L3.97265 42.1551V37.1651H20.9532C20.913 37.6982 20.8916 38.2357 20.8916 38.7764C20.8916 50.3263 30.2882 59.7249 41.8388 59.7249C53.3893 59.7249 62.786 50.3282 62.786 38.7776C62.786 38.2376 62.7646 37.6994 62.7243 37.1663H80.0272V42.1551Z" fill="#95D1FF"/>
</g>
<defs>
<clipPath id="clip0">
<rect width="82.5" height="82.5" fill="white" transform="translate(0.75 0.750366)"/>
</clipPath>
</defs>
</svg>
