<svg width="81" height="81" viewBox="0 0 81 81" fill="none" xmlns="http://www.w3.org/2000/svg">
<g clip-path="url(#clip0)">
<path d="M66.9569 33.0297H66.6926V26.5721C66.6926 19.6783 63.9887 13.1798 59.0791 8.27379C54.1699 3.36824 47.6672 0.666687 40.7688 0.666687C33.8725 0.666687 27.3712 3.36839 22.4625 8.2741C17.5532 13.1801 14.8496 19.6786 14.8496 26.5723V33.0298H14.5854C11.7048 33.0298 9.36133 35.372 9.36133 38.251V75.6496C9.36148 78.5308 11.7049 80.875 14.5855 80.875H25.8908C26.7559 80.875 27.4574 80.1735 27.4574 79.3085C27.4574 78.4434 26.7559 77.7419 25.8908 77.7419H14.5855C13.4327 77.7419 12.4946 76.8032 12.4946 75.6494V67.6822H20.0292C20.8943 67.6822 21.5958 66.9807 21.5958 66.1156C21.5958 65.2505 20.8943 64.549 20.0292 64.549H12.4946V58.5168H20.0292C20.8943 58.5168 21.5958 57.8153 21.5958 56.9502C21.5958 56.0852 20.8943 55.3837 20.0292 55.3837H12.4946V49.3558H20.0292C20.8943 49.3558 21.5958 48.6543 21.5958 47.7892C21.5958 46.9242 20.8943 46.2227 20.0292 46.2227H12.4946V38.2509C12.4946 37.0994 13.4325 36.1628 14.5855 36.1628H66.957C68.1099 36.1628 69.0479 37.0994 69.0479 38.2509V46.2227H61.509C60.6439 46.2227 59.9424 46.9242 59.9424 47.7892C59.9424 48.6543 60.6439 49.3558 61.509 49.3558H69.0478V55.3837H61.5088C60.6438 55.3837 59.9422 56.0852 59.9422 56.9502C59.9422 57.8153 60.6438 58.5168 61.5088 58.5168H69.0478V64.549H61.5088C60.6438 64.549 59.9422 65.2505 59.9422 66.1156C59.9422 66.9807 60.6438 67.6822 61.5088 67.6822H69.0478V75.6494C69.0478 76.8032 68.1099 77.7419 66.9569 77.7419H39.9735C39.1084 77.7419 38.4069 78.4434 38.4069 79.3085C38.4069 80.1735 39.1084 80.875 39.9735 80.875H66.9569C69.8375 80.875 72.1809 78.5308 72.1809 75.6494V38.2509C72.1809 35.3718 69.8375 33.0297 66.9569 33.0297ZM17.9828 26.5721C17.9828 14.0154 28.2046 3.79983 40.7688 3.79983C53.3357 3.79983 63.5594 14.0154 63.5594 26.5721V33.0297H56.3471V26.5721C56.3471 22.4379 54.7198 18.535 51.7651 15.5825C48.8107 12.6303 44.9054 11.0043 40.7688 11.0043C36.6342 11.0043 32.7303 12.6303 29.7765 15.5826C26.8221 18.5356 25.1951 22.4384 25.1951 26.5721V33.0297H17.9828V26.5721ZM53.2141 33.0297H28.3283V26.5721C28.3283 19.7155 33.9092 14.1375 40.7688 14.1375C47.6312 14.1375 53.214 19.7155 53.214 26.5721V33.0297H53.2141Z" fill="#95D1FF"/>
<path d="M43.1483 73.7401C47.3954 71.2086 53.9226 63.9277 55.4875 59.0339C55.7388 58.2386 55.7328 57.7407 55.7267 57.2136C55.7256 57.1285 55.719 48.3144 55.7189 48.1505C55.7179 46.6383 55.3902 46.0955 54.0497 45.3849C53.9054 45.3084 41.4163 39.5955 41.4163 39.5955C41.0047 39.4086 40.5319 39.4084 40.1202 39.5956C40.1202 39.5956 27.6356 45.3087 27.4914 45.3852C26.1527 46.0945 25.8245 46.6367 25.8197 48.1478C25.8192 48.3114 25.8125 48.7624 25.8125 48.7751C25.8125 48.7751 25.8114 57.1258 25.8104 57.2098C25.8043 57.7407 25.7987 58.2422 26.0556 59.0392C27.6187 63.9279 34.146 71.2088 38.3912 73.7391C39.1908 74.2172 39.9683 74.4496 40.7683 74.4496C41.5602 74.4494 42.3615 74.2103 43.1483 73.7401ZM29.0388 58.0813C28.9374 57.7667 28.9382 57.6769 28.9432 57.2455C28.9445 57.1506 28.9522 48.3353 28.9528 48.1579C28.9528 48.1574 28.9528 48.1569 28.9528 48.1564C28.9547 48.1553 28.9566 48.1544 28.9584 48.1533C29.1051 48.0758 40.7686 42.7424 40.7686 42.7424C40.7686 42.7424 52.4361 48.0755 52.5824 48.153C52.5835 48.1536 52.5848 48.1543 52.5857 48.1549C52.5859 48.3327 52.5926 57.1536 52.5937 57.2501C52.5986 57.6729 52.5998 57.7733 52.5013 58.085C51.1926 62.1783 45.2191 68.8583 41.5422 71.0498C41.2424 71.2292 40.9892 71.3163 40.7685 71.3163C40.5507 71.3163 40.2991 71.229 39.9974 71.0487C36.3222 68.8583 30.3488 62.1783 29.0388 58.0813Z" fill="#95D1FF"/>
<path d="M32.9299 77.7419C32.0648 77.7419 31.3633 78.4434 31.3633 79.3085C31.3633 80.1735 32.0648 80.875 32.9299 80.875H32.9388C33.8038 80.875 34.501 80.1735 34.501 79.3085C34.501 78.4434 33.7951 77.7419 32.9299 77.7419Z" fill="#95D1FF"/>
<path d="M47.7554 51.3437C47.1359 50.7394 46.144 50.7521 45.5401 51.3716L38.8724 58.2092L36.7146 56.0617C36.1015 55.4514 35.1097 55.4534 34.4992 56.067C33.8888 56.6802 33.8912 57.6722 34.5045 58.2825L37.7841 61.5465C38.0777 61.8388 38.475 62.0026 38.8892 62.0026H38.9009C39.3192 61.9994 39.7188 61.8292 40.0107 61.5297L47.7831 53.5588C48.3873 52.9395 48.3748 51.9477 47.7554 51.3437Z" fill="#95D1FF"/>
</g>
<defs>
<clipPath id="clip0">
<rect width="80.2083" height="80.2083" fill="white" transform="translate(0.666016 0.666687)"/>
</clipPath>
</defs>
</svg>
