<svg width="60" height="61" viewBox="0 0 60 61" fill="none" xmlns="http://www.w3.org/2000/svg">
<circle cx="30" cy="30.5" r="30" fill="#0ABF9E"/>
<path fill-rule="evenodd" clip-rule="evenodd" d="M14.3145 30.3962C14.3145 38.5853 20.9645 45.5337 29.4491 45.5337C37.9337 45.5337 44.8131 38.8335 44.5838 30.3962C44.5838 22.2071 37.9337 15.2587 29.4491 15.2587C21.1939 15.2587 14.3145 21.9589 14.3145 30.3962Z" fill="white"/>
<path d="M45.9533 21.7099C45.7224 21.7099 45.2606 21.7099 45.0296 21.4618L38.3329 15.7542C38.102 15.5061 37.8711 15.0097 37.8711 14.5134C37.8711 14.2653 37.8711 13.769 38.102 13.5208C38.5639 12.7763 39.4875 12.7763 39.9494 13.2727L46.6461 18.9802C46.877 19.2284 47.1079 19.7247 47.1079 20.221C47.1079 20.4692 47.1079 20.9655 46.877 21.2136C46.877 21.4618 46.4152 21.7099 45.9533 21.7099Z" fill="white"/>
<path d="M13.1546 20.7832C12.9237 20.7832 12.4618 20.535 12.2309 20.2869C12 20.0387 12 19.7906 12 19.2942C12 18.7979 12.2309 18.5498 12.4618 18.0535L19.1585 12.3459C19.8513 11.8496 20.5441 11.8496 21.0059 12.5941C21.2368 12.8422 21.2368 13.3385 21.2368 13.5867C21.2368 14.083 21.0059 14.3311 20.775 14.8275L14.0783 20.535C13.8474 20.7832 13.6164 20.7832 13.1546 20.7832Z" fill="white"/>
<path d="M28.6297 31.8849C27.9369 31.8849 27.2441 31.1404 27.2441 30.396V20.2216C27.2441 19.4771 27.706 18.9808 28.3987 18.9808C29.0915 18.9808 29.7843 19.4771 29.7843 20.2216V30.396C29.7843 31.1404 29.3224 31.8849 28.6297 31.8849Z" fill="#0ABF9E"/>
<path d="M36.7121 35.6065C36.4812 35.6065 36.4812 35.6065 36.2503 35.6065L28.168 31.8842C27.4753 31.3879 27.2443 30.6434 27.4753 30.1471C27.7062 29.6508 28.3989 28.9063 29.0917 29.4026L37.1739 33.125C37.8667 33.3731 38.0976 34.1176 37.8667 34.862C37.6358 35.1102 37.1739 35.6065 36.7121 35.6065Z" fill="#0ABF9E"/>
<path d="M43.6398 49.9992C43.4089 49.9992 42.947 49.751 42.7161 49.5029L36.9431 43.7953C36.4812 43.299 36.2503 42.3064 36.9431 41.8101C37.4049 41.3138 38.3286 41.0656 38.7904 41.8101L44.7944 47.5176C45.2562 48.0139 45.4871 49.0066 44.7944 49.5029C44.3325 49.751 44.1016 49.9992 43.6398 49.9992Z" fill="white"/>
<path d="M17.0826 50C16.6207 50 16.3898 49.7519 16.1589 49.5037C15.697 49.0074 15.697 48.0148 16.1589 47.5185L22.1628 41.8109C22.6247 41.3146 23.5483 41.3146 24.0102 41.8109C24.472 42.3072 24.472 43.2998 24.0102 43.7961L18.0062 49.5037C17.7753 49.7519 17.5444 50 17.0826 50Z" fill="white"/>
</svg>
