<svg width="82" height="82" viewBox="0 0 82 82" fill="none" xmlns="http://www.w3.org/2000/svg">
<g clip-path="url(#clip0)">
<path d="M25.3051 19.372C24.7507 18.6994 23.7515 18.6069 23.0773 19.159C23.0748 19.1612 23.0612 19.1723 23.0586 19.1745C22.3879 19.731 22.2994 20.7206 22.8538 21.393C23.1656 21.7711 23.6179 21.9658 24.0738 21.9658C24.429 21.9658 24.7864 21.8477 25.0817 21.606C25.0842 21.6038 25.0978 21.5927 25.1003 21.5905C25.7711 21.034 25.8596 20.0445 25.3051 19.372Z" fill="#95D1FF"/>
<path d="M41.1529 12.686C36.8551 12.686 32.7242 13.6202 28.8755 15.4629C28.0878 15.8401 27.7549 16.7844 28.1319 17.5723C28.5091 18.3599 29.4534 18.6929 30.2411 18.3157C33.6603 16.6789 37.3316 15.8489 41.1529 15.8489C55.1054 15.8489 66.4567 27.2001 66.4567 41.1527C66.4567 44.1408 65.9414 47.0648 64.9252 49.8436C64.6252 50.6639 65.0469 51.5722 65.8672 51.872C66.0464 51.9375 66.2299 51.9687 66.4103 51.9687C67.0554 51.9687 67.6613 51.5709 67.8958 50.9299C69.0397 47.8019 69.6196 44.5126 69.6196 41.1527C69.6196 25.4562 56.8496 12.686 41.1529 12.686Z" fill="#95D1FF"/>
<path d="M81.1164 50.1225L79.2913 48.4746C77.2231 46.6077 76.0372 43.9389 76.0372 41.1528C76.0372 38.3667 77.2233 35.698 79.2913 33.8309L81.1164 32.1831C81.6133 31.7344 81.7739 31.0215 81.5175 30.4033L77.2896 20.2102C77.0332 19.5923 76.4174 19.2015 75.7481 19.2366L73.29 19.3622C70.5104 19.5059 67.7856 18.4564 65.8172 16.4878C63.8485 14.5193 62.8009 11.7955 62.943 9.01498L63.0684 6.55688C63.1025 5.88886 62.7127 5.27176 62.095 5.0154L51.9017 0.787458C51.2833 0.531573 50.5705 0.69162 50.1219 1.18852L48.4741 3.01371C46.607 5.08167 43.9384 6.26778 41.1521 6.26778C38.3659 6.26778 35.6973 5.08167 33.8302 3.01371L32.1824 1.18852C31.7338 0.691461 31.0208 0.531257 30.4026 0.787458L20.2095 5.0154C19.5917 5.27176 19.2019 5.88886 19.2361 6.55688L19.3615 9.01498C19.5035 11.7955 18.4558 14.5193 16.4873 16.4878C14.5187 18.4564 11.7942 19.5058 9.01445 19.3622L6.55635 19.2366C5.88659 19.2037 5.27107 19.5923 5.01487 20.2102L0.786772 30.4035C0.530255 31.0217 0.690934 31.7346 1.18784 32.1833L3.01303 33.8312C5.08114 35.6981 6.26709 38.3669 6.26709 41.153C6.26709 43.9391 5.08098 46.6078 3.01303 48.4749L1.18784 50.1225C0.690934 50.5712 0.530413 51.2841 0.786772 51.9023L5.01472 62.0955C5.27092 62.7132 5.88738 63.1032 6.55619 63.069L9.01429 62.9435C11.7944 62.7999 14.5187 63.849 16.4871 65.8178C18.4558 67.7863 19.5033 70.5101 19.3613 73.2907L19.2359 75.7488C19.2017 76.4168 19.5916 77.0339 20.2093 77.2902L30.4025 81.5182C31.021 81.7742 31.7336 81.614 32.1823 81.1171L33.83 79.2919C35.6971 77.224 38.3657 76.0379 41.152 76.0379C43.9382 76.0379 46.6068 77.224 48.4739 79.2919L50.1217 81.1171C50.428 81.4565 50.8574 81.6388 51.2959 81.6388C51.4996 81.6388 51.7054 81.5995 51.9015 81.5182L62.0947 77.2902C62.7124 77.0339 63.1022 76.4168 63.0681 75.7488L62.9426 73.2907C62.8006 70.5101 63.8484 67.7863 65.817 65.8178C67.7855 63.8492 70.5089 62.8 73.2897 62.9435L75.7478 63.069C76.4175 63.1051 77.0331 62.7134 77.2893 62.0955L81.5172 51.9023C81.774 51.2841 81.6135 50.5712 81.1164 50.1225ZM74.7954 59.8533L73.4513 59.7845C69.7788 59.5982 66.1809 60.9805 63.5805 63.5811C60.9802 66.1814 59.5964 69.7791 59.7841 73.4518L59.8527 74.7959L51.7214 78.1686L50.8218 77.1723C48.3563 74.441 44.8318 72.8747 41.1521 72.8747C37.4725 72.8747 33.9482 74.441 31.4825 77.1723L30.5829 78.1686L22.4515 74.7959L22.5202 73.4518C22.7079 69.7791 21.3241 66.1814 18.7237 63.5811C16.1232 60.9809 12.5255 59.5953 8.85282 59.7845L7.50872 59.8533L4.1362 51.7219L5.13254 50.8223C7.86376 48.3566 9.43007 44.8321 9.43007 41.1527C9.43007 37.4732 7.86376 33.9487 5.13254 31.483L4.1362 30.5834L7.50904 22.4521L8.85314 22.5209C12.5271 22.7081 16.1235 21.3248 18.724 18.7242C21.3243 16.1239 22.7081 12.5262 22.5203 8.85351L22.4517 7.5094L30.5831 4.13673L31.4826 5.13306C33.9482 7.86429 37.4727 9.43059 41.1523 9.43059C44.8319 9.43059 48.3563 7.86429 50.822 5.13306L51.7215 4.13673L59.8529 7.5094L59.7843 8.85351C59.5965 12.5262 60.9803 16.1239 63.5806 18.7242C66.1811 21.3245 69.7788 22.7089 73.4515 22.5209L74.7956 22.4521L78.1684 30.5834L77.1721 31.483C74.4408 33.9487 72.8745 37.4732 72.8745 41.1527C72.8745 44.8321 74.4408 48.3566 77.1721 50.8223L78.1684 51.7219L74.7954 59.8533Z" fill="#95D1FF"/>
<path d="M56.2624 56.3465L50.4629 50.5469C48.5098 48.5936 45.5027 48.2409 43.1506 49.6894L40.2133 51.498L30.8066 42.0913L32.6154 39.1542C34.0638 36.802 33.7112 33.795 31.7579 31.8419L25.9582 26.0422C23.6431 23.7273 19.8759 23.7268 17.5604 26.0424C11.9278 31.675 11.9278 40.8399 17.5604 46.4727L35.8321 64.7444C38.5606 67.4729 42.1886 68.9756 46.0472 68.9756C49.9059 68.9756 53.5338 67.4729 56.2624 64.7444C58.5777 62.4291 58.5777 58.6618 56.2624 56.3465ZM54.0258 62.5075C53.5507 62.9826 53.0391 63.4072 52.5 63.7847L46.8966 58.1813C46.2791 57.5641 45.2777 57.5639 44.6601 58.1813C44.0425 58.7989 44.0424 59.8003 44.6601 60.418L49.5121 65.2702C48.4068 65.6254 47.2417 65.8126 46.0472 65.8126C43.0332 65.8126 40.1998 64.639 38.0686 62.5078L19.7969 44.2358C16.7078 41.1467 15.791 36.6978 17.0403 32.7982L22.4404 38.1983C22.7493 38.507 23.154 38.6615 23.5587 38.6615C23.9634 38.6615 24.3682 38.507 24.6769 38.1983C25.2945 37.5808 25.2945 36.5794 24.6769 35.9616L18.5212 29.8059C18.8955 29.2694 19.3185 28.7569 19.7968 28.2786C20.3378 27.7376 21.0485 27.467 21.7592 27.467C22.4698 27.467 23.1805 27.7376 23.7216 28.2786L29.5212 34.0782C30.434 34.9909 30.5988 36.3962 29.9219 37.4955L27.4581 41.4967C27.074 42.1203 27.1686 42.9262 27.6865 43.4441L38.8603 54.6179C39.3781 55.1356 40.184 55.2301 40.8078 54.8462L44.8089 52.3825C45.9084 51.7056 47.3135 51.8706 48.2264 52.7833L54.0258 58.5827C55.1079 59.6649 55.1079 61.4254 54.0258 62.5075Z" fill="#95D1FF"/>
<path d="M47.5114 39.5712H42.757C42.8082 38.4609 43.7277 37.573 44.8506 37.573C47.1897 37.573 49.0929 35.67 49.0929 33.3308C49.0929 30.9917 47.1897 29.0885 44.8506 29.0885H41.1733C40.2998 29.0885 39.5918 29.7967 39.5918 30.67C39.5918 31.5433 40.2998 32.2515 41.1733 32.2515H44.8506C45.4457 32.2515 45.9299 32.7357 45.9299 33.3308C45.9299 33.9259 45.4457 34.4102 44.8506 34.4102C41.9509 34.4102 39.5918 36.7693 39.5918 39.669V41.1527C39.5918 42.026 40.2998 42.7342 41.1733 42.7342H47.5114C48.3849 42.7342 49.0929 42.026 49.0929 41.1527C49.0929 40.2794 48.3849 39.5712 47.5114 39.5712Z" fill="#95D1FF"/>
<path d="M59.2204 29.1276C58.3469 29.1276 57.6389 29.8358 57.6389 30.709V34.4017H54.4638V30.7511C54.4638 29.8778 53.7557 29.1696 52.8823 29.1696C52.0088 29.1696 51.3008 29.8778 51.3008 30.7511V35.9831C51.3008 36.8564 52.0088 37.5646 52.8823 37.5646H57.6389V41.1728C57.6389 42.0461 58.3469 42.7543 59.2204 42.7543C60.0938 42.7543 60.8019 42.0461 60.8019 41.1728V30.709C60.8019 29.8358 60.0938 29.1276 59.2204 29.1276Z" fill="#95D1FF"/>
</g>
<defs>
<clipPath id="clip0">
<rect width="80.9722" height="80.9722" fill="white" transform="translate(0.666016 0.666687)"/>
</clipPath>
</defs>
</svg>
